<svg width="157" height="16" viewBox="0 0 157 16" fill="none" xmlns="http://www.w3.org/2000/svg">
<path fill-rule="evenodd" clip-rule="evenodd" d="M6.72031 0L0 16H3.69414L5.14048 12.5435H11.66L13.1064 16H16.8L10.0802 0H6.72031ZM8.41094 4.76077L10.3466 9.40773H6.45323L8.41094 4.76077Z" fill="#1F1F1F"/>
<path fill-rule="evenodd" clip-rule="evenodd" d="M46.2935 0V16H58.2401V12.8182H49.9554V0H46.2935Z" fill="#1F1F1F"/>
<path fill-rule="evenodd" clip-rule="evenodd" d="M74.4569 0L70.933 5.95124L67.41 0H63.4668L69.1135 9.68247V16H72.7534V9.68247L78.4001 0H74.4569Z" fill="#1F1F1F"/>
<path fill-rule="evenodd" clip-rule="evenodd" d="M33.2451 11.5337C33.2451 12.4849 32.3258 13.263 31.3875 13.263H30.4677V13.2636H27.5948V9.74536H30.4677V9.74588H31.3875C32.3258 9.74588 33.2451 10.5245 33.2451 11.4757V11.5337ZM27.5948 2.73645H30.4815V2.73697H30.8147C31.7529 2.73697 32.5205 3.51511 32.5205 4.46628V4.52482C32.5205 5.47599 31.7529 6.25413 30.8147 6.25413H30.4815V6.25465H27.5948V2.73645ZM33.9171 7.61715C33.9059 7.61456 33.8946 7.61093 33.8834 7.60834C33.936 7.59124 34.0311 7.56949 34.0868 7.55032C36.3715 6.80378 36.138 4.02849 36.138 4.02849C36.138 1.86608 34.1568 0.092216 32.0427 0.0108794L28.1048 0.000518068L28.0783 0.00103614L23.8936 0L23.8961 15.9979L28.0614 15.999H28.0813L33.0888 16C35.2197 16 36.9602 14.2401 36.9602 12.0798V11.4503C36.9602 9.57959 35.6515 8.00518 33.9171 7.61715Z" fill="#1F1F1F"/>
<rect x="85.3335" width="12" height="2" fill="#757575"/>
<rect x="90.3335" width="2.00001" height="16" fill="#757575"/>
<rect x="103.333" width="2.00001" height="16" fill="#757575"/>
<rect x="140.667" width="2" height="16" fill="#757575"/>
<rect x="154.667" width="2" height="16" fill="#757575"/>
<rect x="103.333" width="10.6667" height="2" fill="#757575"/>
<rect x="103.333" y="6.66675" width="10.6667" height="2" fill="#757575"/>
<rect x="103.333" y="14" width="10.6667" height="2" fill="#757575"/>
<rect x="123.333" y="9.33325" width="7.99998" height="2" fill="#757575"/>
<path d="M119.667 16H122L127.167 2.66667L133 16H135.334L128.667 0H125.667L119.667 16Z" fill="#757575"/>
<path d="M149 12L143 0H141L148 14.6667H150L156.333 0H154.333L149 12Z" fill="#757575"/>
</svg>
